<svg xmlns="http://www.w3.org/2000/svg" width="1920" height="1080" viewBox="0 0 1920 1080">
  <defs>
    <linearGradient id="sky" x1="0" y1="0" x2="0" y2="1">
      <stop offset="0" stop-color="#BFE0F7"/><stop offset="1" stop-color="#EAF5FE"/>
    </linearGradient>
    <linearGradient id="wall" x1="0" y1="0" x2="0" y2="1">
      <stop offset="0" stop-color="#E4EFFB"/><stop offset="1" stop-color="#D3E5F7"/>
    </linearGradient>
    <linearGradient id="floor" x1="0" y1="0" x2="0" y2="1">
      <stop offset="0" stop-color="#DCEAF8"/><stop offset="1" stop-color="#F2F8FE"/>
    </linearGradient>
    <linearGradient id="slab" x1="0" y1="0" x2="0" y2="1">
      <stop offset="0" stop-color="#525C6E"/><stop offset="0.35" stop-color="#414A5A"/><stop offset="1" stop-color="#333B49"/>
    </linearGradient>
    <linearGradient id="cab" x1="0" y1="0" x2="0" y2="1">
      <stop offset="0" stop-color="#5E93D6"/><stop offset="1" stop-color="#3E74BC"/>
    </linearGradient>
  </defs>

  <rect width="1920" height="1080" fill="url(#wall)"/>
  <rect y="742" width="1920" height="338" fill="url(#floor)"/>
  <path d="M0 742 L1920 742 L1920 754 L0 754 Z" fill="#C2D8EE"/>
  <g stroke="#DCEAF8" stroke-width="3" opacity="0.9">
    <path d="M250 1080 L520 754"/><path d="M760 1080 L830 754"/><path d="M1270 1080 L1140 754"/><path d="M1760 1080 L1450 754"/>
    <path d="M0 900 L1920 900"/><path d="M0 990 L1920 990"/>
  </g>

  <!-- windows, left wall -->
  <g>
    <rect x="70" y="96" width="470" height="392" rx="14" fill="#FFFFFF"/>
    <rect x="86" y="112" width="438" height="360" rx="8" fill="url(#sky)"/>
    <g fill="#FFFFFF" opacity="0.92">
      <ellipse cx="190" cy="206" rx="62" ry="30"/><ellipse cx="240" cy="194" rx="46" ry="26"/>
      <ellipse cx="420" cy="278" rx="54" ry="26"/><ellipse cx="372" cy="270" rx="38" ry="20"/>
    </g>
    <g fill="#9FC4E6" opacity="0.75">
      <rect x="300" y="330" width="46" height="142"/><rect x="360" y="362" width="38" height="110"/>
      <rect x="414" y="342" width="52" height="130"/><rect x="120" y="378" width="40" height="94"/>
    </g>
    <rect x="298" y="112" width="14" height="360" fill="#FFFFFF"/>
    <rect x="86" y="292" width="438" height="12" fill="#FFFFFF"/>
  </g>

  <!-- upper cabinet, right wall -->
  <g>
    <rect x="1408" y="112" width="464" height="290" rx="16" fill="url(#cab)"/>
    <rect x="1428" y="134" width="424" height="112" rx="8" fill="#DCEAF8"/>
    <rect x="1428" y="262" width="424" height="118" rx="8" fill="#DCEAF8"/>
    <g fill="#8FD3F4" stroke="#2F6BB4" stroke-width="4">
      <path d="M1476 158 l0 34 -22 42 a26 26 0 0 0 22 40 l0 0 a26 26 0 0 0 22 -40 l-22 -42 0 -34 z"/>
      <path d="M1572 158 l0 34 -22 42 a26 26 0 0 0 22 40 l0 0 a26 26 0 0 0 22 -40 l-22 -42 0 -34 z"/>
      <path d="M1668 158 l0 34 -22 42 a26 26 0 0 0 22 40 l0 0 a26 26 0 0 0 22 -40 l-22 -42 0 -34 z"/>
      <path d="M1764 158 l0 34 -22 42 a26 26 0 0 0 22 40 l0 0 a26 26 0 0 0 22 -40 l-22 -42 0 -34 z"/>
    </g>
    <g fill="#2F6BB4">
      <rect x="1462" y="148" width="28" height="8" rx="4"/><rect x="1558" y="148" width="28" height="8" rx="4"/>
      <rect x="1654" y="148" width="28" height="8" rx="4"/><rect x="1750" y="148" width="28" height="8" rx="4"/>
    </g>
    <g fill="#BBD6F0"><rect x="1440" y="280" width="120" height="82" rx="6"/><rect x="1580" y="280" width="120" height="82" rx="6"/><rect x="1720" y="280" width="120" height="82" rx="6"/></g>
  </g>

  <!-- back counter -->
  <g>
    <rect x="0" y="520" width="1920" height="26" fill="#3E4A5C"/>
    <rect x="0" y="546" width="1920" height="208" fill="url(#cab)"/>
    <g fill="#DCEAF8" opacity="0.95">
      <rect x="40" y="574" width="200" height="142" rx="8"/><rect x="264" y="574" width="200" height="142" rx="8"/>
      <rect x="600" y="574" width="200" height="142" rx="8"/><rect x="824" y="574" width="200" height="142" rx="8"/>
      <rect x="1160" y="574" width="200" height="142" rx="8"/><rect x="1384" y="574" width="200" height="142" rx="8"/>
      <rect x="1608" y="574" width="200" height="142" rx="8"/>
    </g>
    <g fill="#2F6BB4">
      <rect x="112" y="600" width="56" height="9" rx="4"/><rect x="336" y="600" width="56" height="9" rx="4"/>
      <rect x="672" y="600" width="56" height="9" rx="4"/><rect x="896" y="600" width="56" height="9" rx="4"/>
      <rect x="1232" y="600" width="56" height="9" rx="4"/><rect x="1456" y="600" width="56" height="9" rx="4"/>
      <rect x="1680" y="600" width="56" height="9" rx="4"/>
    </g>
    <!-- microscope on the back counter, right of centre -->
    <g transform="translate(1244 360)" fill="#2F6BB4">
      <rect x="10" y="140" width="128" height="18" rx="8"/>
      <path d="M60 20 l30 0 0 34 -30 0 z"/>
      <path d="M54 54 l42 0 l-6 44 -30 0 z"/>
      <rect x="66" y="98" width="18" height="30" rx="4"/>
      <rect x="26" y="126" width="98" height="16" rx="6"/>
      <path d="M96 30 q44 30 30 96 l-18 0 q12 -54 -22 -80 z"/>
    </g>
  </g>

  <!-- workbench: slab measured at design x 562..1472, y 632..689 -->
  <g>
    <ellipse cx="1017" cy="906" rx="486" ry="30" fill="#A9C4DF" opacity="0.5"/>
    <rect x="596" y="689" width="842" height="176" rx="10" fill="#FDFEFF"/>
    <rect x="596" y="689" width="842" height="176" rx="10" fill="none" stroke="#9FBBD8" stroke-width="5"/>
    <g fill="#EDF4FC" stroke="#C2D8EE" stroke-width="4">
      <rect x="628" y="726" width="236" height="106" rx="8"/>
      <rect x="1170" y="726" width="236" height="106" rx="8"/>
    </g>
    <g fill="#B2C7DB">
      <rect x="712" y="772" width="68" height="10" rx="5"/><rect x="1254" y="772" width="68" height="10" rx="5"/>
    </g>
    <rect x="606" y="865" width="26" height="42" rx="6" fill="#4A5568"/>
    <rect x="1402" y="865" width="26" height="42" rx="6" fill="#4A5568"/>
    <rect x="556" y="626" width="922" height="63" rx="8" fill="#2A313D" opacity="0.18"/>
    <rect x="562" y="632" width="910" height="57" rx="7" fill="url(#slab)"/>
    <rect x="562" y="632" width="910" height="12" rx="6" fill="#69748A" opacity="0.75"/>
  </g>
</svg>
